<?xml version="1.0" encoding="utf-8"?>
<!-- Generator: Adobe Illustrator 23.0.1, SVG Export Plug-In . SVG Version: 6.00 Build 0)  -->
<svg version="1.1" xmlns="http://www.w3.org/2000/svg" xmlns:xlink="http://www.w3.org/1999/xlink" x="0px" y="0px"
	 viewBox="0 0 500 500" style="enable-background:new 0 0 500 500;" xml:space="preserve">
<style type="text/css">
	.st0{fill:none;}
	.st1{fill:#BFE9F7;}
	.st2{fill:#FFFFFF;}
	.st3{fill:none;stroke:#FFFFFF;stroke-width:1.0215;stroke-miterlimit:10;}
	.st4{fill:none;stroke:#FFFFFF;stroke-width:1.0215;stroke-miterlimit:10;stroke-dasharray:2.8574,2.8574;}
	.st5{fill:none;stroke:#FFFFFF;stroke-width:1.0215;stroke-miterlimit:10;stroke-dasharray:2.9317,2.9317;}
	.st6{fill:none;stroke:#FFFFFF;stroke-width:1.0215;stroke-miterlimit:10;stroke-dasharray:2.2812,2.2812;}
	.st7{fill:none;stroke:#FFFFFF;stroke-width:1.0215;stroke-miterlimit:10;stroke-dasharray:2.9045,2.9045;}
	.st8{fill:none;stroke:#FFFFFF;stroke-width:1.0215;stroke-miterlimit:10;stroke-dasharray:2.9364,2.9364;}
	.st9{fill:none;stroke:#173756;stroke-width:1.0215;stroke-miterlimit:10;}
	.st10{fill:none;stroke:#173756;stroke-width:1.0215;stroke-miterlimit:10;stroke-dasharray:2.398,2.398;}
	.st11{fill:none;stroke:#173756;stroke-width:1.0215;stroke-miterlimit:10;stroke-dasharray:2.7787,2.7787;}
	.st12{fill:none;stroke:#173756;stroke-width:1.0215;stroke-miterlimit:10;stroke-dasharray:2.9651,2.9651;}
	.st13{fill:none;stroke:#173756;stroke-width:1.0215;stroke-miterlimit:10;stroke-dasharray:2.8934,2.8934;}
	.st14{fill:#E7E4EC;}
	.st15{fill:#452C6D;}
	.st16{fill:#F95B5E;}
	.st17{fill:#5F88DB;}
	.st18{fill:#6E9CE5;}
	.st19{font-family:'MyriadPro-Regular';}
	.st20{font-size:12.6123px;}
	.st21{fill:none;stroke:#173756;stroke-width:0.8687;stroke-miterlimit:10;}
	.st22{fill:none;stroke:#173756;stroke-width:0.8687;stroke-miterlimit:10;stroke-dasharray:2.9652,2.9652;}
	.st23{fill:none;stroke:#173756;stroke-width:0.8687;stroke-miterlimit:10;stroke-dasharray:2.9074,2.9074;}
	.st24{fill:#A7A9AC;}
	.st25{fill:#C7ECF8;}
	.st26{fill:none;stroke:#FFFFFF;stroke-width:1.0215;stroke-miterlimit:10;stroke-dasharray:2.9775,2.9775;}
	.st27{fill:none;stroke:#FFFFFF;stroke-width:1.0215;stroke-miterlimit:10;stroke-dasharray:3.0189,3.0189;}
	.st28{fill:#D1D3D4;}
	.st29{fill:#173756;}
	.st30{fill:#BCBEC0;}
	.st31{fill:#E3C8FC;}
	.st32{fill:#D3D3D3;}
	.st33{fill:#FAAF41;}
	.st34{fill:#8E5D1C;}
</style>
<g id="BACKGROUND">
	<rect x="-2.9" y="46.5" class="st0" width="500.7" height="424.5"/>
	<g>
		<path class="st1" d="M438.2,372c36.7-36.6,53.1-91.4,44.6-145.6c-2-12.5-5.2-24.8-9.7-36.7c-6.1-16.1-14.4-31.5-24.5-45.5
			c-6.1-8.5-12.9-16.5-20.2-24c-38.7-39.6-99.1-9.7-154.2-18.1c-58.8-9-115.1-53.8-163.4-19.5c-32.5,23.2-57.1,57.1-68.7,95
			c-17.6,57.5-3.6,124,37.5,168.3c27.5,29.5,65.1,48.5,104.4,58.9c42.9,11.4,88.5,18.3,133,15.1C360,416.8,407.2,402.9,438.2,372z"
			/>
		<g>
			<path class="st1" d="M84.1,339.2c3.7-0.1,7.4-0.1,10.8-1.5c3.4-1.4,6.3-4.4,6.5-8c0.2-4-3.3-7.6-7.3-8.4c-4-0.8-8.2,0.8-11.2,3.5
				c-1.6-4.2-7.7-5.9-11.3-3.2c-1.2-7-8-12.7-15.2-12.7c-7.2-0.1-14.1,5.5-15.4,12.5c-4.5-2.3-10.8-0.4-13.2,4
				c-3.6-3.2-10.5-0.8-11.1,3.9c-2.7-0.9-5.5-1.8-8.4-1.5c-6,0.5-9.8,7.5-4.4,11.4c4.5,3.3,16.6,0.8,21.7,0.8
				C45.1,339.7,64.6,339.5,84.1,339.2z"/>
			<path class="st2" d="M408,159.7c3.7-0.1,7.4-0.1,10.8-1.5c3.4-1.4,6.3-4.4,6.5-8c0.2-4-3.3-7.6-7.3-8.4c-4-0.8-8.2,0.8-11.2,3.5
				c-1.6-4.2-7.7-5.9-11.3-3.2c-1.2-7-8-12.7-15.2-12.7c-7.2-0.1-14.1,5.5-15.4,12.5c-4.5-2.3-10.8-0.4-13.2,4
				c-3.6-3.2-10.5-0.8-11.1,3.9c-2.7-0.9-5.5-1.8-8.4-1.5c-6,0.5-9.8,7.5-4.4,11.4c4.5,3.3,16.6,0.8,21.7,0.8
				C369,160.2,388.5,159.9,408,159.7z"/>
			<path class="st2" d="M133.2,116.2c2.2,0,4.4-0.1,6.4-0.9c2-0.8,3.7-2.6,3.9-4.7c0.1-2.4-1.9-4.5-4.3-5s-4.8,0.5-6.6,2.1
				c-1-2.5-4.5-3.5-6.7-1.9c-0.7-4.1-4.7-7.5-9-7.5c-4.3,0-8.3,3.3-9.1,7.4c-2.7-1.3-6.4-0.2-7.8,2.4c-2.1-1.9-6.2-0.5-6.6,2.3
				c-1.6-0.5-3.3-1-5-0.9c-3.5,0.3-5.8,4.4-2.6,6.8c2.7,2,9.8,0.5,12.8,0.4C110.1,116.5,121.7,116.3,133.2,116.2z"/>
		</g>
	</g>
</g>
<g id="OBJECTS">
	<g>
		<g>
			<line class="st3" x1="224" y1="168.2" x2="222.6" y2="168"/>
			<line class="st4" x1="219.8" y1="167.5" x2="170.5" y2="159.1"/>
			<polyline class="st3" points="169.1,158.8 167.6,158.6 167.2,159.9 			"/>
			<line class="st5" x1="166.3" y1="162.7" x2="142.7" y2="233.7"/>
			<polyline class="st3" points="142.2,235.1 141.7,236.4 143.2,236.7 			"/>
			<line class="st6" x1="145.4" y1="237" x2="153.3" y2="238.3"/>
			<line class="st3" x1="154.4" y1="238.5" x2="155.8" y2="238.8"/>
		</g>
	</g>
	<g>
		<g>
			<line class="st3" x1="240.5" y1="171.1" x2="242" y2="171.3"/>
			<line class="st7" x1="244.8" y1="171.8" x2="455.4" y2="206.7"/>
			<polyline class="st3" points="456.9,206.9 458.3,207.2 457.9,208.6 			"/>
			<line class="st8" x1="456.9" y1="211.3" x2="442.8" y2="254.6"/>
			<line class="st3" x1="442.3" y1="256" x2="441.9" y2="257.4"/>
		</g>
	</g>
	<g>
		<g>
			<line class="st9" x1="222.8" y1="239.8" x2="224.2" y2="240"/>
			<line class="st10" x1="226.6" y1="240.4" x2="234.9" y2="241.8"/>
			<polyline class="st9" points="236.1,242 237.5,242.2 237.9,240.9 			"/>
			<line class="st11" x1="238.8" y1="238.2" x2="243.7" y2="223.7"/>
			<polyline class="st9" points="244.1,222.4 244.5,221 246,221.3 			"/>
			<line class="st12" x1="248.9" y1="221.8" x2="358.6" y2="239.9"/>
			<line class="st9" x1="360.1" y1="240.2" x2="361.5" y2="240.4"/>
		</g>
	</g>
	<g>
		<g>
			<line class="st9" x1="105.8" y1="310.3" x2="106.3" y2="308.9"/>
			<polyline class="st9" points="107.5,305.3 108,303.9 109.4,304.1 			"/>
			<line class="st13" x1="112.2" y1="304.6" x2="162.2" y2="312.9"/>
			<line class="st9" x1="163.6" y1="313.1" x2="165.1" y2="313.4"/>
		</g>
	</g>
	<g>
		<path class="st2" d="M365.3,266.4c-3.7,0.1-3.9-5.7-0.1-5.8C368.9,260.5,369,266.3,365.3,266.4L365.3,266.4z"/>
	</g>
	<g>
		<path class="st14" d="M242.8,185.3c-3.7,0.1-3.9-5.7-0.1-5.8C246.4,179.4,246.6,185.2,242.8,185.3L242.8,185.3z"/>
	</g>
	<g>
		<path class="st15" d="M141.4,284.4c-1.9,0-2-2.9-0.1-2.9C143.1,281.4,143.2,284.3,141.4,284.4L141.4,284.4z"/>
	</g>
	<g>
		<path class="st15" d="M283.8,206.5c-1.9,0-2-2.9-0.1-2.9C285.6,203.5,285.7,206.4,283.8,206.5L283.8,206.5z"/>
	</g>
	<g>
		<path class="st15" d="M403.8,359.6c-1.9,0-2-2.9-0.1-2.9C405.6,356.7,405.7,359.6,403.8,359.6L403.8,359.6z"/>
	</g>
	<g>
		<path class="st2" d="M133.7,219.9c-1.9,0-2-2.9-0.1-2.9C135.5,217,135.6,219.9,133.7,219.9L133.7,219.9z"/>
	</g>
	<g>
		<path class="st2" d="M59.6,314.4c-1.9,0-2-2.9-0.1-2.9C61.4,311.4,61.5,314.3,59.6,314.4L59.6,314.4z"/>
	</g>
	<g>
		<path class="st16" d="M381.9,245.2c-1.9,0-2-2.9-0.1-2.9C383.7,242.3,383.7,245.2,381.9,245.2L381.9,245.2z"/>
	</g>
	<g>
		<path class="st16" d="M197.7,124.1c-8.3,0.2-8.6-12.6-0.3-12.9C205.7,111,206,123.9,197.7,124.1L197.7,124.1z"/>
	</g>
	<g>
		<path class="st16" d="M171.7,147.2c-1.9,0-2-2.9-0.1-2.9C173.5,144.2,173.6,147.1,171.7,147.2L171.7,147.2z"/>
	</g>
	<g>
		<path class="st16" d="M358,431.4c-4.9,0.1-5.1-7.4-0.2-7.6C362.7,423.7,362.9,431.3,358,431.4L358,431.4z"/>
	</g>
	<g>
		<path class="st16" d="M282.1,193.6c-1.9,0-2-2.9-0.1-2.9C283.9,190.6,284,193.5,282.1,193.6L282.1,193.6z"/>
	</g>
	<g>
		<path class="st16" d="M131.4,293c-1.9,0-2-2.9-0.1-2.9C133.2,290,133.2,292.9,131.4,293L131.4,293z"/>
	</g>
	<g>
		<path class="st16" d="M380.2,208.6c-1.9,0-2-2.9-0.1-2.9C382,205.6,382.1,208.5,380.2,208.6L380.2,208.6z"/>
	</g>
	<g>
		<path class="st16" d="M76.7,287.6c-1.9,0-2-2.9-0.1-2.9C78.5,284.6,78.6,287.5,76.7,287.6L76.7,287.6z"/>
	</g>
	<g>
		<path class="st16" d="M328.5,438.6c-3.8,0.1-3.9-5.7-0.1-5.8C332.1,432.6,332.2,438.5,328.5,438.6L328.5,438.6z"/>
	</g>
	<g>
		<path class="st2" d="M150,179.8c-1.9,0-2-2.9-0.1-2.9C151.8,176.9,151.9,179.8,150,179.8L150,179.8z"/>
	</g>
	<g>
		<path class="st2" d="M134.2,296.3c-1.9,0-2-2.9-0.1-2.9C136,293.4,136.1,296.3,134.2,296.3L134.2,296.3z"/>
	</g>
	<g>
		<path class="st2" d="M219.8,270.1c-1.9,0-2-2.9-0.1-2.9C221.6,267.2,221.6,270.1,219.8,270.1L219.8,270.1z"/>
	</g>
	<g>
		<path class="st2" d="M231.5,331.3c-1.9,0-2-2.9-0.1-2.9C233.3,328.4,233.3,331.3,231.5,331.3L231.5,331.3z"/>
	</g>
	<g>
		<path class="st2" d="M139.1,432.8c-1.9,0-2-2.9-0.1-2.9C140.9,429.9,141,432.8,139.1,432.8L139.1,432.8z"/>
	</g>
	<path class="st15" d="M436.7,403.5c0-0.4,0-0.8,0-1.3c-0.1-4.9,4.1-9.7,9.2-9.6c5.1,0.1,9.5,3.9,9.6,9.2c0,0.4,0,0.8,0,1.3
		c0.1,4.9-4.1,9.7-9.2,9.6C441.3,412.6,436.9,408.8,436.7,403.5L436.7,403.5z"/>
	<g>
		<path class="st15" d="M48.7,366.4c-4,0.1-4.2-6.1-0.2-6.2C52.5,360,52.7,366.3,48.7,366.4L48.7,366.4z"/>
	</g>
	<g>
		<path class="st15" d="M80.5,304c-3.7,0.1-3.9-5.7-0.1-5.8C84.1,298.1,84.3,303.9,80.5,304L80.5,304z"/>
	</g>
	<g>
		<path class="st15" d="M204.1,205.7c-3.7,0.1-3.9-5.7-0.1-5.8C207.7,199.8,207.8,205.6,204.1,205.7L204.1,205.7z"/>
	</g>
	<g>
		<path class="st2" d="M379.8,360.5c-3.7,0.1-3.9-5.7-0.1-5.8C383.4,354.5,383.5,360.4,379.8,360.5L379.8,360.5z"/>
	</g>
	<g>
		<path class="st2" d="M230.5,346.5c-3.7,0.1-3.9-5.7-0.1-5.8C234.1,340.6,234.2,346.4,230.5,346.5L230.5,346.5z"/>
	</g>
	<g>
		<polygon class="st17" points="6.7,263.5 54.5,288.1 62.2,300.8 		"/>
		<g>
			<polygon class="st17" points="62.2,300.8 55.3,287.7 53.4,288.5 			"/>
			<polygon class="st18" points="6.7,263.5 33.4,302.2 54.5,288.1 			"/>
			<polygon class="st0" points="6.7,263.5 75.2,279.3 54.5,288.1 			"/>
			<text transform="matrix(0.9276 -0.1633 0.498 0.8672 39.9865 280.6645)" class="st19 st20">   </text>
		</g>
	</g>
	<g>
		<g>
			<path class="st21" d="M43.2,298.2c0.1,0.5,0.2,0.9,0.3,1.4"/>
			<path class="st22" d="M44.7,302.3c1.6,2.9,4.3,5.3,7.5,6.6c4.5,1.8,9.7,1.5,14.1-0.5c2.1-0.9,4.1-2.4,4.8-4.5
				c0.9-3-1.3-6.3-4.2-7.2c-3-0.8-6.3,0.5-8.3,2.9c-2,2.4-2.9,5.5-2.9,8.6c-0.1,2.2,0.3,4.5,1.4,6.4c1.8,3.1,5.5,4.6,9,5.3
				c5.5,1.1,11.3,0.5,16.5-1.6"/>
			<path class="st21" d="M83.8,317.7c0.4-0.2,0.9-0.4,1.3-0.6"/>
		</g>
	</g>
	<g>
		<polygon class="st18" points="423.4,342.1 427.7,350.2 458.7,309.2 		"/>
		<polygon class="st17" points="463.3,303.8 423.2,342.2 450.6,337.8 		"/>
		<polygon class="st17" points="463.3,303.8 403.6,346.4 423.4,342.1 		"/>
	</g>
	<g>
		<g>
			<path class="st21" d="M419.6,353.1c-0.4,0.3-0.7,0.6-1.1,1"/>
			<path class="st23" d="M416.2,355.9c-7.8,5.7-17.8,8.5-27.5,7.5c-4.2-0.4-8.4-1.6-11.6-4.2c-1.5-1.2-2.9-2.9-2.9-4.8
				c-0.1-2.1,1.4-3.9,2.9-5.4c3.1-2.9,7.5-5.1,11.4-3.5c4.9,2,5.8,9.2,3,13.6c-2.9,4.5-8.2,6.7-13.3,8.1c-5.4,1.5-11,2.5-16.6,2.8"
				/>
			<path class="st21" d="M360,370.1c-0.5,0-1,0-1.4,0"/>
		</g>
	</g>
	<path class="st24" d="M30,384.1l0.1,4.9c0,0,14.2-0.9,15.8-2.1C47.5,385.8,30,384.1,30,384.1z"/>
	<polygon class="st25" points="181.1,347.8 386.6,380.3 431.2,248.6 225.7,216.1 	"/>
	<g>
		<g>
			<g>
				<polyline class="st3" points="330.2,294.1 329.7,295.5 328.3,295.3 				"/>
				<line class="st26" x1="325.4" y1="294.8" x2="285.7" y2="288.5"/>
				<polyline class="st3" points="284.2,288.2 282.8,288 283.2,286.6 				"/>
				<line class="st27" x1="284.2" y1="283.8" x2="297.5" y2="245.3"/>
				<polyline class="st3" points="298,243.8 298.5,242.5 299.9,242.7 				"/>
				<line class="st26" x1="302.9" y1="243.2" x2="342.6" y2="249.5"/>
				<polyline class="st3" points="344,249.7 345.5,249.9 345,251.3 				"/>
				<line class="st27" x1="344" y1="254.2" x2="330.7" y2="292.7"/>
			</g>
		</g>
	</g>
	<polygon class="st1" points="319.9,283.5 272.9,276.1 288.6,230.5 335.6,238 	"/>
	<g>
		<polygon class="st2" points="281.1,267 318.1,273.1 317.4,258 301.7,261.6 294.1,252.7 		"/>
		
			<ellipse transform="matrix(0.8381 -0.5455 0.5455 0.8381 -84.0348 214.7004)" class="st2" cx="319.7" cy="248.9" rx="6.2" ry="5.2"/>
	</g>
	<path class="st28" d="M366.4,388.5l-195-35.4c0,0,5.4-0.8,0,0c-5.8,0.9-76.6,20-71.8,18.7l195.6,42.8L366.4,388.5z"/>
	<polygon class="st29" points="237.1,370.8 244.3,368.3 256,370.5 249.1,373.1 	"/>
	<polygon class="st29" points="219.9,367.6 227.2,365.2 241.7,367.8 234.4,370.3 	"/>
	<polygon class="st29" points="313.8,385.2 321.5,382.4 336.6,385.2 328.8,388 	"/>
	<polygon class="st29" points="251.6,373.5 258.6,370.9 270.3,373.1 263.3,375.7 	"/>
	<polygon class="st29" points="297,382 304.6,379.3 318.9,381.9 311.2,384.7 	"/>
	<polygon class="st29" points="203.9,364.6 211.4,362.3 224.5,364.7 217.2,367.1 	"/>
	<polygon class="st29" points="280.5,378.9 287.9,376.3 302,378.8 294.5,381.6 	"/>
	<polygon class="st29" points="265.7,376.2 272.8,373.5 285.3,375.8 277.9,378.5 	"/>
	<polygon class="st29" points="174.2,359.1 184.1,357.3 208.6,361.8 201.1,364.1 	"/>
	<polygon class="st29" points="355.7,388.6 346.2,391.2 331.4,388.5 339.2,385.6 	"/>
	<polygon class="st29" points="316.4,393.9 331.8,396.9 323.6,399.9 308.3,396.8 	"/>
	<polygon class="st29" points="131.5,377 115.3,373.6 124.9,371 140.3,374.3 	"/>
	<polygon class="st29" points="143,373.5 127.8,370.2 135.4,368.2 150.1,371.3 	"/>
	<polygon class="st29" points="288.8,394.5 304.1,397.7 295.4,400.8 280.3,397.6 	"/>
	<polygon class="st29" points="299.2,389 285.3,386.3 292,383.8 306.2,386.5 	"/>
	<polygon class="st29" points="326.2,390.3 341.8,393.3 334.4,396 318.9,393 	"/>
	<polygon class="st29" points="316.4,392.5 301.7,389.5 308.7,387 323.6,389.9 	"/>
	<polygon class="st29" points="282.8,385.8 269,383.1 275.6,380.7 289.5,383.4 	"/>
	<polygon class="st29" points="180.2,370.5 166.2,367.6 173.6,365.6 187.3,368.3 	"/>
	<polygon class="st29" points="163.8,366.9 149.8,364 157.8,362.1 171.5,364.8 	"/>
	<polygon class="st29" points="206.4,370.7 192.9,368 199,366.1 212.4,368.7 	"/>
	<polygon class="st29" points="152.9,370.5 138.3,367.4 146.2,365.2 160.4,368.2 	"/>
	<polygon class="st29" points="238.6,377 226.1,374.6 232.3,372.5 244.6,374.8 	"/>
	<polygon class="st29" points="176.7,364.8 183,363.1 196.2,365.6 190.1,367.4 	"/>
	<polygon class="st29" points="161.5,361.3 167.2,359.8 180.5,362.3 174.9,364 	"/>
	<polygon class="st29" points="266.5,382.6 254.9,380.3 261.1,377.9 273,380.2 	"/>
	<polygon class="st29" points="223.6,374.1 209,371.2 215.1,369.2 229.7,372 	"/>
	<polygon class="st29" points="252.5,379.8 241.1,377.5 247,375.3 258.6,377.5 	"/>
	<polygon class="st29" points="184.2,378.6 177.6,380.8 162.7,377.6 169.4,375.4 	"/>
	<polygon class="st29" points="275.1,390 282.7,387.2 296.6,390 288.8,392.8 	"/>
	<polygon class="st29" points="271.8,391 286.3,394 277.8,397.1 263.5,394 	"/>
	<polygon class="st29" points="245.4,383.9 252.4,381.2 264,383.5 256.6,386.2 	"/>
	<polygon class="st29" points="299.1,390.5 313.9,393.4 305.8,396.3 291.3,393.3 	"/>
	<polygon class="st29" points="259,386.7 266.5,384 280.2,386.7 272.6,389.5 	"/>
	<polygon class="st29" points="182.9,371 190,368.8 203.7,371.5 196.6,373.9 	"/>
	<polygon class="st29" points="231.7,381.1 238.6,378.5 250,380.7 243,383.4 	"/>
	<polygon class="st29" points="199.2,374.4 206.3,372.1 220.9,375 213.8,377.4 	"/>
	<polygon class="st29" points="216.4,377.9 223.5,375.5 236.1,378 229.3,380.6 	"/>
	<polygon class="st29" points="242.5,391 236.2,393.3 222.8,390.4 229.2,388.2 	"/>
	<polygon class="st29" points="200.2,382 194,384.3 180.1,381.4 186.7,379.1 	"/>
	<polygon class="st29" points="213.7,384.9 207.5,387.2 196.4,384.8 202.6,382.5 	"/>
	<polygon class="st29" points="152.7,371.9 166.8,374.9 160.1,377.1 145.7,374 	"/>
	<polygon class="st29" points="275.3,398 269,400.3 254.6,397.2 261,394.9 	"/>
	<polygon class="st29" points="142.9,374.9 157.4,378 149.3,380.6 134.2,377.5 	"/>
	<polygon class="st29" points="277.8,398.5 292.9,401.7 286.6,404 271.4,400.8 	"/>
	<polygon class="st29" points="258.5,394.4 252.2,396.7 238.6,393.8 245,391.5 	"/>
	<polygon class="st29" points="172.1,374.5 179.5,372.1 194.2,375.1 186.8,377.7 	"/>
	<polygon class="st29" points="226.7,387.6 220.4,389.9 209.9,387.7 216.1,385.4 	"/>
	<polygon class="st29" points="217.9,390.8 210.9,393.3 200.6,391.2 207.5,388.6 	"/>
	<polygon class="st29" points="266.4,401.2 260.1,403.5 245.6,400.5 252.1,398.1 	"/>
	<polygon class="st29" points="205.1,388.1 198.2,390.7 186.9,388.4 193.9,385.7 	"/>
	<polygon class="st29" points="284.1,404.9 277.9,407.2 262.5,404 268.9,401.7 	"/>
	<polygon class="st29" points="189.3,378.2 196.8,375.6 209.8,378.3 202.6,381.1 	"/>
	<polygon class="st29" points="249.7,397.6 243.1,400 229.4,397.2 236.1,394.7 	"/>
	<polygon class="st29" points="191.6,385.2 184.5,387.9 169.9,384.9 177.6,382.2 	"/>
	<polygon class="st29" points="233.7,394.2 226.9,396.6 213.4,393.9 220.3,391.3 	"/>
	<polygon class="st29" points="269.3,390.5 261,393.5 247.5,390.6 255.5,387.7 	"/>
	<polygon class="st29" points="218.5,384.4 225.9,381.6 237,383.9 229.2,386.7 	"/>
	<polygon class="st29" points="205,381.6 212.3,378.8 223.5,381.1 216.1,383.9 	"/>
	<polygon class="st29" points="175,381.7 167.3,384.4 151.9,381.2 160,378.5 	"/>
	<polygon class="st29" points="231.7,387.2 239.5,384.4 253.1,387.2 245,390.1 	"/>
	<polygon class="st29" points="169.5,374 155.5,371 163.1,368.7 176.9,371.6 	"/>
	<polygon class="st30" points="215.1,400.6 160.1,388.8 116,401.1 176.4,414.9 	"/>
	<polygon class="st29" points="280,407.7 294.9,402.2 302.4,403.6 314,399.6 321.5,401 294.9,410.8 	"/>
	<g>
		<path class="st2" d="M258.4,362c0,0-19.7,18.9-24.9,22.8c0,0,33.4,1.2,61.9-12.3s37.9-28.6,44.3-39.1c0,0-31.6,5.3-38.5,6
			c0,0-2.3,16.3-16.9,27.4C284.3,366.7,274.3,366.9,258.4,362z"/>
		<path class="st31" d="M233.6,384.8c0,0,33.4,1.2,61.9-12.3c8.9-4.2,16-8.6,21.7-13c-16.9,7.7-32.8,7.2-32.8,7.2s-10,0.2-25.9-4.7
			C258.4,362,238.7,380.9,233.6,384.8z"/>
	</g>
	<path class="st18" d="M65.1,356.4l65.7,10.9c3.1,0.5,6.5-1.5,7.7-4.5l12.3-31.5c1.2-3-0.4-5.8-3.5-6.3l-65.7-10.9
		c-3.1-0.5-6.5,1.5-7.7,4.5l-12.3,31.5C60.5,353.1,62.1,355.9,65.1,356.4z"/>
	<polygon class="st32" points="72.3,316.4 74.3,309.2 150.6,323.5 136.9,358.2 	"/>
	<polygon class="st2" points="76.2,316.5 79.1,307.9 148.1,321.6 138.7,342.4 	"/>
	<path class="st18" d="M129,367l-65.7-10.9c-3.1-0.5-4.9-3.4-4.1-6.4l8.9-32.1c0.8-3,4-5.1,7.1-4.6l65.7,10.9
		c3.1,0.5,4.9,3.4,4.1,6.4l-8.9,32.1C135.2,365.5,132,367.5,129,367z"/>
	<path class="st33" d="M115.8,320.9l0.9-2.8c0.3-0.9,1.3-1.5,2.3-1.4l17.8,2.9l-1.6,4.7L115.8,320.9z"/>
	<g>
		<path class="st34" d="M106.8,350.4l-17.1-2.8c-0.3-0.1-0.5-0.3-0.6-0.5c-0.1-0.3,0-0.6,0.3-0.8l13.4-13c0.2-0.2,0.6-0.3,0.9-0.3
			c0.3,0.1,0.5,0.3,0.6,0.5l3.8,15.8c0.1,0.3,0,0.6-0.3,0.8C107.4,350.4,107.1,350.5,106.8,350.4z M91.7,346.2l14.1,2.3l-3.1-13.1
			L91.7,346.2z"/>
		<g>
			<path class="st34" d="M98.7,345.5c0.1-0.4,0.5-0.7,0.9-0.6c0.4,0.1,0.6,0.4,0.5,0.8c-0.1,0.4-0.5,0.7-0.9,0.6
				C98.7,346.2,98.5,345.9,98.7,345.5z M99.5,343.9l1.7-5.5l1.1,0.2l-2,5.4L99.5,343.9z"/>
		</g>
	</g>
	<path class="st18" d="M292.5,197.1l50.4,8.4c2.4,0.4,5-1.2,5.9-3.4l9.4-24.2c0.9-2.3-0.3-4.5-2.7-4.9l-50.4-8.4
		c-2.4-0.4-5,1.2-5.9,3.4l-9.4,24.2C288.9,194.6,290.1,196.7,292.5,197.1z"/>
	<polygon class="st32" points="298,166.4 299.5,160.9 358.1,171.8 347.6,198.5 	"/>
	<polygon class="st2" points="301,166.4 303.2,159.9 356.2,170.4 349,186.4 	"/>
	<path class="st18" d="M341.5,205.2l-50.4-8.4c-2.4-0.4-3.8-2.6-3.1-4.9l6.8-24.6c0.6-2.3,3.1-3.9,5.5-3.5l50.4,8.4
		c2.4,0.4,3.8,2.6,3.1,4.9l-6.8,24.6C346.3,204.1,343.8,205.6,341.5,205.2z"/>
	<g>
		<path class="st16" d="M329.6,193.8l-23.7-3.9c-0.8-0.1-1.3-0.9-1-1.7l4.8-13.6c0.3-0.8,1.2-1.4,2.1-1.2l23.7,3.9
			c0.8,0.1,1.3,0.9,1,1.7l-4.8,13.6C331.4,193.4,330.5,193.9,329.6,193.8z M307.4,187.7l22.3,3.7l4.3-12.1l-22.3-3.7L307.4,187.7z"
			/>
		<path class="st16" d="M319.7,185.2c-0.2,0-0.4-0.1-0.6-0.3l-9.2-9.4c-0.4-0.4-0.3-1.1,0.2-1.6c0.5-0.5,1.3-0.5,1.7-0.1l8.8,8.9
			l14.5-5.1c0.6-0.2,1.3,0.1,1.4,0.6c0.1,0.6-0.3,1.2-0.9,1.4l-15.3,5.3C320.1,185.2,319.9,185.2,319.7,185.2z"/>
	</g>
	<path class="st33" d="M331.4,169.8l0.7-2.1c0.2-0.7,1-1.2,1.7-1.1l13.6,2.3l-1.2,3.6L331.4,169.8z"/>
</g>
</svg>
